{"title":"Cham Cham - BAAGHI  2016 - Tiger Shroff, Shraddha Kapoor  Meet B","uid":14756063,"size":101679382,"categoryP":"video","categoryS":"music_videos","magnet":"?xt=urn:btih:f9d6bbc120b51bbf7a4e1171df0d2595c7f4d7b6&amp;dn=Cham+Cham+-+BAAGHI++2016+-+Tiger+Shroff%2C+Shraddha+Kapoor++Meet+B&amp;tr=udp%3A%2F%2Ftracker.leechers-paradise.org%3A6969&amp;tr=udp%3A%2F%2Fzer0day.ch%3A1337&amp;tr=udp%3A%2F%2Fopen.demonii.com%3A1337&amp;tr=udp%3A%2F%2Ftracker.coppersurfer.tk%3A6969&amp;tr=udp%3A%2F%2Fexodus.desync.com%3A6969","seeders":0,"leechers":1,"uploader":"MdTaRa","files":1,"time":1464814839,"description":"============================================================================\r\nGeneral\r\nComplete name               : Cham Cham - BAAGHI  2016 - Tiger Shroff, Shraddha Kapoor  Meet Bros, Monali Thakur  Sabbir Khan - Full HD 1080p.mkv\r\nFormat                      : Matroska\r\nFormat version              : Version 4 / Version 2\r\nFile size                   : 97.0 MiB\r\nDuration                    : 3mn 51s\r\nOverall bit rate mode       : Variable\r\nOverall bit rate            : 3 511 Kbps\r\n===================================================================================\r\nVideo\r\nID                          : 1\r\nFormat                      : AVC\r\nFormat/Info                 : Advanced Video Codec\r\nFormat profile              :   \r\nFormat settings, CABAC      : Yes\r\nFormat settings, ReFrames   : 3 frames\r\nCodec ID                    : V_MPEG4/ISO/AVC\r\nDuration                    : 3mn 51s\r\nBit rate mode               : Variable\r\nBit rate                    : 3 402 Kbps\r\nMaximum bit rate            : 40.0 Mbps\r\nWidth                       : 1 920 pixels\r\nHeight                      : 816 pixels\r\nDisplay aspect ratio        : 2.35:1\r\nFrame rate mode             : Constant\r\nFrame rate                  : 24.000 fps\r\nColor space                 : YUV\r\nChroma subsampling          : 4:2:0\r\nBit depth                   : 8 bits\r\nScan type                   : Progressive\r\nBits/(Pixel*Frame)          : 0.090\r\nStream size                 : 94.2 MiB (97%)\r\nTitle                       : = __ TaRa ~ DDR __ =\r\nLanguage                    : Hindi\r\nDefault                     : Yes\r\nForced                      : No\r\n===================================================================================\r\nAudio\r\nID                          : 2\r\nFormat                      : AAC\r\nFormat/Info                 : Advanced Audio Codec\r\nFormat profile              : LC\r\nCodec ID                    : A_AAC\r\nDuration                    : 3mn 51s\r\nBit rate                    : 96.0 Kbps\r\nChannel(s)                  : 2 channels\r\nChannel positions           : Front: L R\r\nSampling rate               : 44.1 KHz\r\nFrame rate                  : 43.066 fps (1024 spf)\r\nCompression mode            : Lossy\r\nDelay relative to video     : 10ms\r\nStream size                 : 2.65 MiB (3%)\r\nTitle                       : = __ TaRa ~ DDR __ =\r\nLanguage                    : Hindi\r\nDefault                     : Yes\r\nForced                      : No\r\n=================================================================================== \nhttp://postimg.org/image/w7hxlh3fv/","torrent":{"xt":"urn:btih:f9d6bbc120b51bbf7a4e1171df0d2595c7f4d7b6","amp;dn":"Cham+Cham+-+BAAGHI++2016+-+Tiger+Shroff%2C+Shraddha+Kapoor++Meet+B","amp;tr":["udp%3A%2F%2Ftracker.leechers-paradise.org%3A6969","udp%3A%2F%2Fzer0day.ch%3A1337","udp%3A%2F%2Fopen.demonii.com%3A1337","udp%3A%2F%2Ftracker.coppersurfer.tk%3A6969","udp%3A%2F%2Fexodus.desync.com%3A6969"],"infoHash":"f9d6bbc120b51bbf7a4e1171df0d2595c7f4d7b6","infoHashBuffer":{"type":"Buffer","data":[249,214,187,193,32,181,27,191,122,78,17,113,223,13,37,149,199,244,215,182]},"announce":[],"urlList":[]}}